<svg width="34" height="35" viewBox="0 0 34 35" fill="none" xmlns="http://www.w3.org/2000/svg">
<path id="Vector" d="M24.2351 21.8527H22.7287L22.1948 21.3231C24.0635 19.0873 25.1885 16.1846 25.1885 13.0269C25.1885 5.9859 19.6397 0.278564 12.7942 0.278564C5.94882 0.278564 0.400024 5.9859 0.400024 13.0269C0.400024 20.0679 5.94882 25.7753 12.7942 25.7753C15.8642 25.7753 18.6863 24.6181 20.86 22.696L21.3749 23.2452V24.7946L30.9089 34.5814L33.75 31.6591L24.2351 21.8527ZM12.7942 21.8527C8.04631 21.8527 4.21363 17.9105 4.21363 13.0269C4.21363 8.14331 8.04631 4.20113 12.7942 4.20113C17.5422 4.20113 21.3749 8.14331 21.3749 13.0269C21.3749 17.9105 17.5422 21.8527 12.7942 21.8527Z" fill="#E5E5E5"/>
</svg>
